<svg width="28" height="28" viewBox="0 0 28 28" fill="none" xmlns="http://www.w3.org/2000/svg">
<path fill-rule="evenodd" clip-rule="evenodd" d="M26.74 7.06437L26.782 7.09492C27.5338 7.62057 28 8.43513 28 9.33116V23.6573C28.0022 24.2269 27.8807 24.7913 27.6425 25.3181C27.4042 25.8448 27.054 26.3237 26.6118 26.7271C26.1695 27.1306 25.644 27.4507 25.0654 27.6691C24.4868 27.8876 23.8665 28 23.24 28H4.76002C4.13351 28 3.51317 27.8876 2.93456 27.6691C2.35596 27.4507 1.83047 27.1306 1.38824 26.7271C0.946018 26.3237 0.595751 25.8448 0.357529 25.3181C0.119307 24.7913 -0.00218155 24.2269 2.96497e-05 23.6573V9.33116C2.96497e-05 8.43513 0.466228 7.62057 1.21803 7.09492L1.25863 7.06564L12.1646 0.533839C12.6897 0.186879 13.3222 0 13.9713 0C14.6204 0 15.2529 0.186879 15.778 0.533839L26.74 7.06437ZM11.2 15.2724V25.4545H8.40001V15.0178C8.40001 13.7553 9.53121 12.7269 10.92 12.7269H17.08C18.4688 12.7269 19.6 13.7553 19.6 15.0178V25.4545H16.8V15.2724H11.2Z" fill="#F57A60"/>
</svg>
