<svg width="28" height="29" viewBox="0 0 28 29" fill="none" xmlns="http://www.w3.org/2000/svg">
<path fill-rule="evenodd" clip-rule="evenodd" d="M17.7561 5.20533C17.7561 3.8469 18.2957 2.54411 19.2563 1.58356C20.2168 0.623007 21.5196 0.083374 22.8781 0.083374C24.2365 0.083374 25.5393 0.623007 26.4998 1.58356C27.4604 2.54411 28 3.8469 28 5.20533C28 6.56376 27.4604 7.86655 26.4998 8.8271C25.5393 9.78766 24.2365 10.3273 22.8781 10.3273C21.5196 10.3273 20.2168 9.78766 19.2563 8.8271C18.2957 7.86655 17.7561 6.56376 17.7561 5.20533Z" fill="#FF9E17"/>
<path fill-rule="evenodd" clip-rule="evenodd" d="M16.7686 1.44922C15.9229 2.82297 15.5651 4.44175 15.7531 6.04395C15.9411 7.64616 16.6638 9.13817 17.8045 10.2789C18.9452 11.4196 20.4372 12.1423 22.0394 12.3303C23.6416 12.5183 25.2604 12.1605 26.6341 11.3148V18.8639C26.6341 21.309 25.6628 23.6541 23.9338 25.3831C22.2048 27.1121 19.8598 28.0834 17.4146 28.0834H9.21951C6.77435 28.0834 4.42933 27.1121 2.70033 25.3831C0.971339 23.6541 0 21.309 0 18.8639V10.6687C0 8.22357 0.971339 5.87855 2.70033 4.14955C4.42933 2.42056 6.77435 1.44922 9.21951 1.44922H16.7686Z" fill="#FF9E17"/>
</svg>
